<svg width="905" height="150" viewBox="0 0 905 150" fill="none" xmlns="http://www.w3.org/2000/svg">
<path fill-rule="evenodd" clip-rule="evenodd" d="M769.499 4.41344e-06H737.384H730.499L722.999 0C679.896 5.50362e-05 659.207 18.157 633.693 48.5742C623.01 61.3105 622.423 62.0047 622.085 62.4049L622.085 62.4051L622.085 62.4053L622.084 62.4054C621.721 62.8355 621.64 62.9317 609.6 77.2968C592.019 98.2728 578.025 112.5 548.999 112.5L542.353 112.5L541.499 112.5L533.999 150H548.999C587.942 150 612.764 131.805 638.31 101.408C648.743 88.9941 649.62 87.9734 650.005 87.5259L650.064 87.4573C650.324 87.1543 650.58 86.8481 654.307 82.3902C656.089 80.2582 658.666 77.1765 662.416 72.6914C679.967 51.7015 697.321 37.5 722.999 37.5L700.499 150H739.499L754.144 76.7759L802.499 150H842.999L874.499 150L904.499 4.41344e-06H865.499L823.498 2.83745e-05L758.367 55.6575L769.499 4.41344e-06ZM863.953 7.72989L790.498 70.5H790.499L837.242 141.282L863.953 7.72989Z" fill="#043799"/>
<path fill-rule="evenodd" clip-rule="evenodd" d="M69 0H30L0 150H39L53.6448 76.776L102 150H142.5L174 150L184.8 96H215.915L247.5 150H288L310.5 150L330.165 115.5H395.444L401.999 150H409.5H422.999H424.499C463.443 150 488.265 131.805 513.811 101.408C524.244 88.9941 525.121 87.9734 525.506 87.526L525.565 87.4573C525.824 87.1546 526.08 86.8485 529.799 82.4003L529.799 82.3999C531.582 80.2675 534.161 77.1833 537.917 72.6914C555.468 51.7015 572.822 37.5 598.5 37.5L606 37.5L613.5 1.54474e-05L598.5 1.08453e-05C555.397 6.58815e-05 534.708 18.157 509.194 48.5742C498.507 61.3153 497.924 62.0052 497.585 62.4054C497.222 62.8355 497.141 62.931 485.1 77.2968C469.497 95.9128 456.72 109.213 433.752 111.97L407.999 1.52587e-05L396 7.62936e-06H358.5L278.374 133.543L252.754 89.7402C269.708 82.9931 282.925 70.1238 285.749 48C290.249 12.75 261.851 7.62936e-06 223.499 7.62936e-06H204H200.999H165L122.999 3.15905e-05L57.8685 55.6574L69 0ZM379.124 29.6066L344.7 90H390.599L379.124 29.6066ZM211.499 69H190.2L198.6 27H215.999C235.05 26.7641 254.249 27 250.499 48C246.746 69.0207 231.023 69.0113 212.753 69.0005C212.337 69.0002 211.919 69 211.499 69ZM163.454 7.72992L89.9995 70.5H90.0002L136.743 141.282L163.454 7.72992Z" fill="#E0074C"/>
</svg>
