<svg width="905" height="150" viewBox="0 0 905 150" fill="none" xmlns="http://www.w3.org/2000/svg">
<path fill-rule="evenodd" clip-rule="evenodd" d="M730.501 0H769.501L758.369 55.6587L823.502 2.08616e-05L865.501 0H904.501L874.501 150L843 150H802.5L754.146 76.7772L739.501 150H700.501L723.001 37.5C697.323 37.5 679.969 51.7015 662.418 72.6914C658.664 77.1803 656.087 80.2634 654.304 82.3956L654.301 82.3999L654.296 82.4058C650.581 86.8488 650.326 87.1548 650.066 87.4574L650.007 87.526L650.007 87.5261C649.622 87.9735 648.745 88.9948 638.312 101.408C612.766 131.806 587.944 150 549.001 150H534.001L541.501 112.5L542.417 112.5L549.001 112.5C578.027 112.5 592.021 98.2729 609.602 77.2969C621.642 62.9317 621.723 62.8356 622.086 62.4055L622.087 62.4054L622.087 62.4047C622.426 62.0044 623.014 61.308 633.695 48.5742C659.209 18.157 679.898 5.82522e-05 723.001 3.21592e-06L730.501 0ZM837.244 141.284L863.955 7.73104L790.502 70.5H790.5L837.244 141.284Z" fill="#F5FCFF"/>
<path fill-rule="evenodd" clip-rule="evenodd" d="M69 0H30L0 150H39L53.6446 76.7772L101.999 150H142.499L174 150L184.8 96H215.915L247.5 150H288L310.499 150L330.164 115.5H395.446L402.001 150H409.5H423H424.5C463.443 150 488.265 131.806 513.812 101.408C524.244 88.9941 525.121 87.9734 525.506 87.526L525.565 87.4574C525.823 87.156 526.078 86.8514 529.748 82.4621L529.82 82.3759C531.602 80.2444 534.175 77.1665 537.917 72.6914C555.468 51.7015 572.822 37.5 598.5 37.5L606 37.5L613.5 7.81801e-06L598.5 3.21592e-06C555.397 5.82522e-05 534.708 18.157 509.194 48.5742C498.525 61.2938 497.926 62.0028 497.587 62.4034L497.587 62.4037L497.586 62.405L497.585 62.4055C497.222 62.8356 497.14 62.932 485.101 77.2969C469.498 95.9125 456.72 109.213 433.754 111.97L408.001 0H395.999H373.501H358.499L278.374 133.542L252.754 89.7406C269.709 82.9935 282.926 70.1242 285.751 48C290.251 12.75 261.852 0 223.501 0H204H201.001H165L123.001 2.08616e-05L57.8683 55.6587L69 0ZM379.125 29.6034L344.699 90H390.601L379.125 29.6034ZM211.501 69H190.2L198.6 27H216.001C235.051 26.7641 254.251 27 250.501 48C246.747 69.0207 231.024 69.0114 212.755 69.0005C212.464 69.0003 212.173 69.0001 211.88 69.0001L211.501 69ZM163.454 7.73103L90.0007 70.5H89.9993L136.743 141.284L163.454 7.73103Z" fill="#F5FCFF"/>
</svg>
