<?xml version="1.0" encoding="UTF-8"?> <svg xmlns="http://www.w3.org/2000/svg" width="50" height="50" viewBox="0 0 50 50" fill="none"> <path fill-rule="evenodd" clip-rule="evenodd" d="M35.9394 30.2623C35.3171 29.9467 32.2665 28.4258 31.6986 28.214C31.1305 28.0043 30.7171 27.9005 30.3016 28.5317C29.8882 29.1587 28.7001 30.578 28.3389 30.9973C27.9756 31.4188 27.6144 31.4697 26.9941 31.1562C26.374 30.8385 24.3737 30.1755 22.0038 28.0318C20.16 26.3627 18.9135 24.3017 18.5523 23.6705C18.191 23.0413 18.5126 22.7003 18.8237 22.3868C19.1035 22.1051 19.4438 21.6518 19.755 21.2853C20.0661 20.9168 20.1684 20.6542 20.3751 20.2326C20.5839 19.8132 20.4795 19.4468 20.3229 19.1312C20.1684 18.8156 18.9281 15.7166 18.4103 14.4563C17.907 13.2299 17.3955 13.3972 17.0155 13.376C16.6521 13.3591 16.2387 13.3549 15.8253 13.3549C15.4118 13.3549 14.7395 13.5116 14.1716 14.1428C13.6015 14.7719 12 16.2949 12 19.3938C12 22.4906 14.2217 25.4837 14.5328 25.9052C14.8439 26.3246 18.9072 32.6835 25.1317 35.4096C26.6141 36.0577 27.7688 36.4453 28.6688 36.7335C30.1555 37.2142 31.5086 37.1465 32.5776 36.9833C33.7678 36.8033 36.2484 35.4603 36.7661 33.9903C37.2819 32.5203 37.2819 31.26 37.1274 30.9973C36.9729 30.7347 36.5595 30.578 35.9372 30.2623H35.9394Z" fill="#132867"></path> <path d="M36.7103 22.2051C36.9207 21.9965 37.0274 21.7341 37.0303 21.418L37.014 20.4815C37.0086 20.1652 36.8926 19.8948 36.6663 19.6705C36.4357 19.4418 36.1652 19.329 35.8546 19.3321L32.1579 19.2628L36.5151 14.9432C36.7296 14.7305 36.8239 14.4783 36.7978 14.1866C36.7718 13.8949 36.6456 13.6369 36.4193 13.4125L35.5993 12.5996C35.373 12.3753 35.1127 12.2501 34.8185 12.2243C34.5242 12.1985 34.2699 12.2919 34.0553 12.5047L29.6982 16.8242L29.6282 13.1594C29.6314 12.8515 29.5175 12.5833 29.2869 12.3547C29.0563 12.1261 28.7858 12.0133 28.4753 12.0163L27.5306 12.0002C27.2115 11.9948 26.9447 12.0984 26.7302 12.3111C26.5115 12.5279 26.4049 12.7945 26.4104 13.1108L26.5514 21.2394C26.5483 21.5389 26.664 21.805 26.8989 22.0379C27.1296 22.2665 27.4001 22.3835 27.7108 22.3887L35.9101 22.5285C36.229 22.5256 36.4958 22.4179 36.7103 22.2051Z" fill="#132867"></path> </svg> 