<?xml version="1.0" encoding="UTF-8"?> <svg xmlns="http://www.w3.org/2000/svg" width="458" height="76" viewBox="0 0 458 76" fill="none"><path fill-rule="evenodd" clip-rule="evenodd" d="M366.096 0H369.897H389.645L384.009 28.1829L416.988 0.000353575H438.252L438.252 0H458L442.809 75.9535H426.861L426.861 75.9539H406.354L381.87 38.8781L374.455 75.9535H354.707L366.1 18.9884H366.096C353.093 18.9884 344.306 26.1794 335.419 36.8078C333.521 39.0781 332.216 40.6383 331.314 41.7178C329.426 43.9761 329.296 44.1312 329.165 44.2847L329.135 44.3195C328.94 44.5461 328.495 45.0636 323.213 51.3487C310.278 66.7407 297.709 75.9535 277.99 75.9535H270.395L274.192 56.9652L274.521 56.9652L277.99 56.9652C292.687 56.9652 299.773 49.7612 308.675 39.1398C314.772 31.8658 314.813 31.8172 314.997 31.5994C315.168 31.3968 315.464 31.0477 320.875 24.5959C333.795 9.19391 344.27 2.94964e-05 366.096 0ZM423.944 71.537L437.468 3.91834L400.279 35.6985H400.278L423.944 71.537Z" fill="#043799"></path><path fill-rule="evenodd" clip-rule="evenodd" d="M34.9386 0H15.1907L0 75.9535H19.7479L27.163 38.8781L51.647 75.9539H72.1545L72.1542 75.9535H88.1066L93.5753 48.6103H109.327L125.321 75.9539H145.828L145.828 75.9535H157.223L167.18 58.4853H200.239L203.558 75.9535H207.353H214.193H214.948C234.667 75.9535 247.236 66.7407 260.171 51.3487C265.456 45.0609 265.899 44.5457 266.093 44.3192L266.123 44.2847C266.254 44.1321 266.383 43.978 268.238 41.7587L268.25 41.7441L268.26 41.7318L268.517 41.4246L268.813 41.0708C269.675 40.0393 270.829 38.6599 272.377 36.8078C281.265 26.1794 290.052 18.9884 303.054 18.9884L306.852 18.9884L310.649 3.9587e-06L303.054 0C281.229 2.94964e-05 270.753 9.19391 257.833 24.5959C252.426 31.043 252.127 31.3963 251.956 31.599L251.956 31.5992L251.955 31.5994L251.955 31.5995L251.955 31.5997C251.771 31.8173 251.728 31.8685 245.633 39.1398C237.734 48.5653 231.264 55.2996 219.636 56.6966L206.596 0H200.516H189.127H181.528L140.955 67.6218L127.982 45.443C136.57 42.0272 143.265 35.5103 144.696 24.3051C146.974 6.45605 132.595 0 113.175 0H103.297H101.782H83.5494L83.5493 0.000353575H62.2816L29.3021 28.1829L34.9386 0ZM191.974 14.9859L174.539 45.5732H197.786L191.974 14.9859ZM107.099 34.9386H96.3096L100.563 13.6716H109.377C119.024 13.5522 128.746 13.6716 126.847 24.3051C124.946 34.9491 116.985 34.9444 107.734 34.9389L107.099 34.9386ZM82.7666 3.91384L45.5718 35.6985H45.5707L69.241 71.5421L82.7666 3.91384Z" fill="#E0074C"></path></svg> 