<?xml version="1.0" encoding="UTF-8"?> <svg xmlns="http://www.w3.org/2000/svg" width="50" height="50" viewBox="0 0 50 50" fill="none"> <path d="M35.2663 18.5498C31.6663 12.9998 24.3163 11.3498 18.6163 14.7998C13.0663 18.2498 11.2663 25.7498 14.8663 31.2998L15.1663 31.7498L13.9663 36.2498L18.4663 35.0498L18.9163 35.3498C20.8663 36.3998 22.9663 36.9998 25.0663 36.9998C27.3163 36.9998 29.5663 36.3998 31.5163 35.1998C37.0663 31.5998 38.7163 24.2498 35.2663 18.5498V18.5498ZM32.1163 30.0998C31.5163 30.9998 30.7663 31.5998 29.7163 31.7498C29.1163 31.7498 28.3663 32.0498 25.3663 30.8498C22.8163 29.6498 20.7163 27.6998 19.2163 25.4498C18.3163 24.3998 17.8663 23.0498 17.7163 21.6998C17.7163 20.4998 18.1663 19.4498 18.9163 18.6998C19.2163 18.3998 19.5163 18.2498 19.8163 18.2498H20.5663C20.8663 18.2498 21.1663 18.2498 21.3163 18.8498C21.6163 19.5998 22.3663 21.3998 22.3663 21.5498C22.5163 21.6998 22.5163 21.9998 22.3663 22.1498C22.5163 22.4498 22.3663 22.7498 22.2163 22.8998C22.0663 23.0498 21.9163 23.3498 21.7663 23.4998C21.4663 23.6498 21.3163 23.9498 21.4663 24.2498C22.0663 25.1498 22.8163 26.0498 23.5663 26.7998C24.4663 27.5498 25.3663 28.1498 26.4163 28.5998C26.7163 28.7498 27.0163 28.7498 27.1663 28.4498C27.3163 28.1498 28.0663 27.3998 28.3663 27.0998C28.6663 26.7998 28.8163 26.7998 29.1163 26.9498L31.5163 28.1498C31.8163 28.2998 32.1163 28.4498 32.2663 28.5998C32.4163 29.0498 32.4163 29.6498 32.1163 30.0998V30.0998Z" fill="#132766"></path> </svg> 