<svg width="2100" height="2970" viewBox="0 0 2100 2970" fill="none" xmlns="http://www.w3.org/2000/svg">
<g clip-path="url(#clip0_1314_338)">
<rect width="2100" height="2970" fill="white"/>
<path d="M902.069 261V204.6H924.629C930.443 204.6 934.923 205.907 938.069 208.52C941.269 211.08 942.869 214.68 942.869 219.32C942.869 222.413 942.069 225.053 940.469 227.24C938.869 229.427 936.656 231.027 933.829 232.04C937.083 232.893 939.616 234.467 941.429 236.76C943.296 239.053 944.229 241.96 944.229 245.48C944.229 250.493 942.603 254.333 939.349 257C936.096 259.667 931.509 261 925.589 261H902.069ZM908.469 229.8H923.669C932.149 229.8 936.389 226.493 936.389 219.88C936.389 213.213 932.149 209.88 923.669 209.88H908.469V229.8ZM908.469 255.72H924.949C933.483 255.72 937.749 252.28 937.749 245.4C937.749 238.52 933.483 235.08 924.949 235.08H908.469V255.72ZM973.172 261.72C967.039 261.72 962.185 259.933 958.612 256.36C955.039 252.733 953.252 247.827 953.252 241.64C953.252 237.64 954.052 234.12 955.652 231.08C957.252 227.987 959.439 225.613 962.212 223.96C965.039 222.253 968.292 221.4 971.972 221.4C977.252 221.4 981.385 223.107 984.372 226.52C987.359 229.88 988.852 234.52 988.852 240.44V242.92H959.572C959.785 247.347 961.065 250.733 963.412 253.08C965.759 255.373 969.012 256.52 973.172 256.52C975.519 256.52 977.759 256.173 979.892 255.48C982.025 254.733 984.052 253.533 985.972 251.88L988.212 256.44C986.452 258.093 984.212 259.4 981.492 260.36C978.772 261.267 975.999 261.72 973.172 261.72ZM972.132 226.2C968.452 226.2 965.545 227.347 963.412 229.64C961.279 231.933 960.025 234.947 959.652 238.68H983.252C983.092 234.733 982.052 231.667 980.132 229.48C978.265 227.293 975.599 226.2 972.132 226.2ZM998.931 261V222.12H1005.41V238.36H1012.69L1025.41 222.12H1032.53L1019.01 239.64C1020.4 240.173 1021.65 241.053 1022.77 242.28C1023.89 243.507 1025.14 245.267 1026.53 247.56L1034.53 261H1027.57L1020.53 249.24C1019.2 246.947 1017.92 245.427 1016.69 244.68C1015.46 243.933 1013.73 243.56 1011.49 243.56H1005.41V261H998.931ZM1049.12 261V227.32H1035.04V222.12H1069.76V227.32H1055.6V261H1049.12ZM1092.67 261.72C1088.88 261.72 1085.6 260.893 1082.83 259.24C1080.06 257.587 1077.9 255.267 1076.35 252.28C1074.86 249.24 1074.11 245.667 1074.11 241.56C1074.11 237.453 1074.86 233.907 1076.35 230.92C1077.9 227.88 1080.06 225.533 1082.83 223.88C1085.6 222.227 1088.88 221.4 1092.67 221.4C1096.4 221.4 1099.66 222.227 1102.43 223.88C1105.26 225.533 1107.42 227.88 1108.91 230.92C1110.46 233.907 1111.23 237.453 1111.23 241.56C1111.23 245.667 1110.46 249.24 1108.91 252.28C1107.42 255.267 1105.26 257.587 1102.43 259.24C1099.66 260.893 1096.4 261.72 1092.67 261.72ZM1092.67 256.52C1096.3 256.52 1099.2 255.24 1101.39 252.68C1103.58 250.067 1104.67 246.36 1104.67 241.56C1104.67 236.707 1103.58 233 1101.39 230.44C1099.2 227.88 1096.3 226.6 1092.67 226.6C1088.99 226.6 1086.06 227.88 1083.87 230.44C1081.74 233 1080.67 236.707 1080.67 241.56C1080.67 246.36 1081.74 250.067 1083.87 252.68C1086.06 255.24 1088.99 256.52 1092.67 256.52ZM1121.82 275.4V222.12H1128.14V229.08C1129.32 226.68 1131.05 224.813 1133.34 223.48C1135.69 222.093 1138.41 221.4 1141.5 221.4C1144.97 221.4 1147.98 222.227 1150.54 223.88C1153.16 225.48 1155.16 227.8 1156.54 230.84C1157.98 233.827 1158.7 237.4 1158.7 241.56C1158.7 245.667 1157.98 249.24 1156.54 252.28C1155.16 255.267 1153.16 257.587 1150.54 259.24C1147.98 260.893 1144.97 261.72 1141.5 261.72C1138.52 261.72 1135.85 261.053 1133.5 259.72C1131.16 258.387 1129.42 256.547 1128.3 254.2V275.4H1121.82ZM1140.14 256.52C1143.77 256.52 1146.68 255.24 1148.86 252.68C1151.05 250.067 1152.14 246.36 1152.14 241.56C1152.14 236.707 1151.05 233 1148.86 230.44C1146.68 227.88 1143.77 226.6 1140.14 226.6C1136.52 226.6 1133.61 227.88 1131.42 230.44C1129.24 233 1128.14 236.707 1128.14 241.56C1128.14 246.36 1129.24 250.067 1131.42 252.68C1133.61 255.24 1136.52 256.52 1140.14 256.52ZM1181.49 261.72C1178.82 261.72 1176.42 261.213 1174.29 260.2C1172.21 259.133 1170.55 257.693 1169.33 255.88C1168.1 254.067 1167.49 252.04 1167.49 249.8C1167.49 246.973 1168.21 244.733 1169.65 243.08C1171.14 241.427 1173.57 240.253 1176.93 239.56C1180.34 238.813 1184.98 238.44 1190.85 238.44H1193.41V235.96C1193.41 232.653 1192.71 230.28 1191.33 228.84C1189.99 227.347 1187.83 226.6 1184.85 226.6C1182.5 226.6 1180.23 226.947 1178.05 227.64C1175.86 228.28 1173.62 229.347 1171.33 230.84L1169.09 226.12C1171.11 224.68 1173.57 223.533 1176.45 222.68C1179.38 221.827 1182.18 221.4 1184.85 221.4C1189.86 221.4 1193.57 222.627 1195.97 225.08C1198.42 227.533 1199.65 231.347 1199.65 236.52V261H1193.57V254.28C1192.55 256.573 1190.98 258.387 1188.85 259.72C1186.77 261.053 1184.31 261.72 1181.49 261.72ZM1182.53 256.84C1185.73 256.84 1188.34 255.747 1190.37 253.56C1192.39 251.32 1193.41 248.493 1193.41 245.08V242.68H1190.93C1186.61 242.68 1183.19 242.893 1180.69 243.32C1178.23 243.693 1176.5 244.387 1175.49 245.4C1174.53 246.36 1174.05 247.693 1174.05 249.4C1174.05 251.587 1174.79 253.373 1176.29 254.76C1177.83 256.147 1179.91 256.84 1182.53 256.84Z" fill="#132766"/>
<path d="M1237.39 873.979C1292.42 835.548 1365.58 835.548 1420.61 873.979L1810.98 1146.61L2190.9 1433.63C2244.45 1474.09 2267.06 1543.67 2247.52 1607.88L2108.87 2063.39L1953.29 2513.41C1931.36 2576.85 1872.17 2619.85 1805.06 2621.1L1329 2630L852.935 2621.1C785.827 2619.85 726.636 2576.85 704.706 2513.41L549.134 2063.39L410.482 1607.88C390.937 1543.67 413.546 1474.09 467.1 1433.63L847.016 1146.61L1237.39 873.979Z" fill="#F5FCFF"/>
<path d="M1044.27 400.999C1047.71 398.597 1052.29 398.597 1055.73 400.999L1074.1 413.83L1091.98 427.339C1095.33 429.868 1096.74 434.217 1095.52 438.23L1088.99 459.67L1081.67 480.85C1080.3 484.815 1076.6 487.503 1072.41 487.581L1050 488L1027.59 487.581C1023.4 487.503 1019.7 484.815 1018.33 480.85L1011.01 459.67L1004.48 438.23C1003.26 434.217 1004.67 429.868 1008.02 427.339L1025.9 413.83L1044.27 400.999Z" fill="#132766"/>
<path d="M435.389 873.979C490.417 835.548 563.583 835.548 618.611 873.979L1347.82 1383.24L2057.49 1919.39C2111.05 1959.85 2133.66 2029.43 2114.11 2093.64L1855.11 2944.53L1564.51 3785.15C1542.58 3848.58 1483.39 3891.59 1416.28 3892.84L527 3909.46L-362.278 3892.84C-429.385 3891.59 -488.577 3848.58 -510.507 3785.15L-801.112 2944.53L-1060.11 2093.64C-1079.66 2029.43 -1057.05 1959.85 -1003.49 1919.39L-293.819 1383.24L435.389 873.979Z" fill="#EEFAFF"/>
<path d="M1457.89 1305.98C1512.92 1267.55 1586.08 1267.55 1641.11 1305.98L2407.19 1840.99L3152.75 2404.25C3206.3 2444.71 3228.91 2514.29 3209.37 2578.5L2937.27 3472.41L2631.97 4355.54C2610.04 4418.97 2550.85 4461.98 2483.74 4463.23L1549.5 4480.69L615.257 4463.23C548.149 4461.98 488.957 4418.97 467.027 4355.54L161.728 3472.41L-110.367 2578.5C-129.912 2514.29 -107.302 2444.71 -53.7481 2404.25L691.81 1840.99L1457.89 1305.98Z" fill="#E3F7FF"/>
<path d="M724.889 1478.98C779.917 1440.55 853.083 1440.55 908.111 1478.98L1674.19 2013.99L2419.75 2577.25C2473.3 2617.71 2495.91 2687.29 2476.37 2751.5L2204.27 3645.41L1898.97 4528.54C1877.04 4591.97 1817.85 4634.98 1750.74 4636.23L816.5 4653.69L-117.743 4636.23C-184.851 4634.98 -244.043 4591.97 -265.973 4528.54L-571.272 3645.41L-843.367 2751.5C-862.912 2687.29 -840.302 2617.71 -786.748 2577.25L-41.1904 2013.99L724.889 1478.98Z" fill="#DDF5FF"/>
<path d="M457.889 1911.98C512.917 1873.55 586.083 1873.55 641.111 1911.98L1407.19 2446.99L2152.75 3010.25C2206.3 3050.71 2228.91 3120.29 2209.37 3184.5L1937.27 4078.41L1631.97 4961.54C1610.04 5024.97 1550.85 5067.98 1483.74 5069.23L549.5 5086.69L-384.743 5069.23C-451.851 5067.98 -511.043 5024.97 -532.973 4961.54L-838.272 4078.41L-1110.37 3184.5C-1129.91 3120.29 -1107.3 3050.71 -1053.75 3010.25L-308.19 2446.99L457.889 1911.98Z" fill="#D3F1FF"/>
<path d="M1587.89 2308.98C1642.92 2270.55 1716.08 2270.55 1771.11 2308.98L2537.19 2843.99L3282.75 3407.25C3336.3 3447.71 3358.91 3517.29 3339.37 3581.5L3067.27 4475.41L2761.97 5358.54C2740.04 5421.97 2680.85 5464.98 2613.74 5466.23L1679.5 5483.69L745.257 5466.23C678.149 5464.98 618.957 5421.97 597.027 5358.54L291.728 4475.41L19.6332 3581.5C0.088295 3517.29 22.6975 3447.71 76.2519 3407.25L821.81 2843.99L1587.89 2308.98Z" fill="#C7EDFF"/>
<path d="M407.48 618V589.8H430.76V618H427.44V592.64H410.76V618H407.48ZM435.834 618L438.834 612.8C439.634 611.387 440.661 610.467 441.914 610.04C440.261 609.8 438.981 609.2 438.074 608.24C437.168 607.253 436.714 605.973 436.714 604.4C436.714 602.613 437.301 601.2 438.474 600.16C439.674 599.093 441.461 598.56 443.834 598.56H452.594V618H449.514V610.6H446.674C445.608 610.6 444.701 610.867 443.954 611.4C443.234 611.933 442.648 612.587 442.194 613.36L439.554 618H435.834ZM444.434 608.24H449.514V600.84H444.434C442.861 600.84 441.701 601.173 440.954 601.84C440.208 602.48 439.834 603.373 439.834 604.52C439.834 605.693 440.208 606.613 440.954 607.28C441.701 607.92 442.861 608.24 444.434 608.24ZM463.037 618V601.16H455.997V598.56H473.357V601.16H466.277V618H463.037ZM476.77 618V598.56H479.73V613.6L490.97 598.56H493.73V618H490.77V602.96L479.53 618H476.77ZM502.41 625.2L505.73 617.68L497.53 598.56H501.05L507.49 614.32L513.97 598.56H517.37L505.81 625.2H502.41ZM521.106 618V598.56H534.746V601.16H524.346V618H521.106ZM546.609 618.36C544.716 618.36 543.076 617.947 541.689 617.12C540.302 616.293 539.222 615.133 538.449 613.64C537.702 612.12 537.329 610.333 537.329 608.28C537.329 606.227 537.702 604.453 538.449 602.96C539.222 601.44 540.302 600.267 541.689 599.44C543.076 598.613 544.716 598.2 546.609 598.2C548.476 598.2 550.102 598.613 551.489 599.44C552.902 600.267 553.982 601.44 554.729 602.96C555.502 604.453 555.889 606.227 555.889 608.28C555.889 610.333 555.502 612.12 554.729 613.64C553.982 615.133 552.902 616.293 551.489 617.12C550.102 617.947 548.476 618.36 546.609 618.36ZM546.609 615.76C548.422 615.76 549.876 615.12 550.969 613.84C552.062 612.533 552.609 610.68 552.609 608.28C552.609 605.853 552.062 604 550.969 602.72C549.876 601.44 548.422 600.8 546.609 600.8C544.769 600.8 543.302 601.44 542.209 602.72C541.142 604 540.609 605.853 540.609 608.28C540.609 610.68 541.142 612.533 542.209 613.84C543.302 615.12 544.769 615.76 546.609 615.76ZM559.675 618.44L558.475 615.88C559.675 615.373 560.621 614.667 561.315 613.76C562.008 612.827 562.488 611.547 562.755 609.92C563.048 608.293 563.195 606.16 563.195 603.52V598.56H577.315V618H574.075V601.16H566.235V603.64C566.235 606.68 566.008 609.187 565.555 611.16C565.128 613.133 564.435 614.693 563.475 615.84C562.515 616.987 561.248 617.853 559.675 618.44ZM583.723 618V598.56H586.963V605.48H592.843C595.323 605.48 597.203 606.027 598.483 607.12C599.763 608.187 600.403 609.707 600.403 611.68C600.403 613.627 599.737 615.173 598.403 616.32C597.097 617.44 595.243 618 592.843 618H583.723ZM586.963 615.68H592.523C594.017 615.68 595.177 615.36 596.003 614.72C596.857 614.08 597.283 613.08 597.283 611.72C597.283 610.387 596.87 609.4 596.043 608.76C595.217 608.12 594.043 607.8 592.523 607.8H586.963V615.68ZM605.208 618V598.56H608.448V606.64H619.048V598.56H622.288V618H619.048V609.28H608.448V618H605.208ZM628.684 618V598.56H631.644V613.6L642.884 598.56H645.644V618H642.684V602.96L631.444 618H628.684ZM652.044 618V598.56H655.284V606.68H658.924L665.284 598.56H668.844L662.084 607.32C662.777 607.587 663.404 608.027 663.964 608.64C664.524 609.253 665.15 610.133 665.844 611.28L669.844 618H666.364L662.844 612.12C662.177 610.973 661.537 610.213 660.924 609.84C660.31 609.467 659.444 609.28 658.324 609.28H655.284V618H652.044ZM673.098 618V598.56H676.058V613.6L687.298 598.56H690.058V618H687.098V602.96L675.858 618H673.098ZM715.011 618.36C713.065 618.36 711.385 617.947 709.971 617.12C708.558 616.267 707.465 615.08 706.691 613.56C705.945 612.013 705.571 610.213 705.571 608.16C705.571 605.067 706.411 602.64 708.091 600.88C709.771 599.093 712.078 598.2 715.011 598.2C716.211 598.2 717.398 598.413 718.571 598.84C719.745 599.267 720.718 599.867 721.491 600.64L720.371 603C719.598 602.253 718.745 601.707 717.811 601.36C716.905 601.013 716.038 600.84 715.211 600.84C713.185 600.84 711.625 601.48 710.531 602.76C709.438 604.013 708.891 605.827 708.891 608.2C708.891 610.52 709.438 612.36 710.531 613.72C711.625 615.053 713.185 615.72 715.211 615.72C716.038 615.72 716.905 615.547 717.811 615.2C718.745 614.853 719.598 614.293 720.371 613.52L721.491 615.88C720.718 616.653 719.731 617.267 718.531 617.72C717.358 618.147 716.185 618.36 715.011 618.36ZM737.671 618V615.2H744.111V593.76L739.031 596.96L737.631 594.52L745.031 589.8H747.391V615.2H753.431V618H737.671ZM768.695 618.36C765.469 618.36 763.015 617.12 761.335 614.64C759.655 612.16 758.815 608.573 758.815 603.88C758.815 599.16 759.655 595.573 761.335 593.12C763.015 590.667 765.469 589.44 768.695 589.44C771.949 589.44 774.402 590.667 776.055 593.12C777.735 595.547 778.575 599.12 778.575 603.84C778.575 608.56 777.722 612.16 776.015 614.64C774.335 617.12 771.895 618.36 768.695 618.36ZM768.695 615.52C770.935 615.52 772.589 614.573 773.655 612.68C774.749 610.787 775.295 607.84 775.295 603.84C775.295 599.84 774.762 596.92 773.695 595.08C772.629 593.213 770.962 592.28 768.695 592.28C766.455 592.28 764.789 593.213 763.695 595.08C762.629 596.947 762.095 599.867 762.095 603.84C762.095 607.84 762.629 610.787 763.695 612.68C764.789 614.573 766.455 615.52 768.695 615.52ZM792.12 619L789.84 617.68L806.44 588.8L808.68 590.12L792.12 619ZM789.72 606.72C787.586 606.72 785.92 605.96 784.72 604.44C783.52 602.92 782.92 600.8 782.92 598.08C782.92 595.36 783.52 593.253 784.72 591.76C785.92 590.24 787.586 589.48 789.72 589.48C791.826 589.48 793.48 590.24 794.68 591.76C795.906 593.253 796.52 595.36 796.52 598.08C796.52 600.8 795.906 602.92 794.68 604.44C793.48 605.96 791.826 606.72 789.72 606.72ZM789.72 604.36C790.946 604.36 791.92 603.84 792.64 602.8C793.36 601.733 793.72 600.16 793.72 598.08C793.72 596 793.36 594.44 792.64 593.4C791.92 592.36 790.946 591.84 789.72 591.84C788.466 591.84 787.48 592.36 786.76 593.4C786.066 594.44 785.72 596 785.72 598.08C785.72 600.16 786.066 601.733 786.76 602.8C787.48 603.84 788.466 604.36 789.72 604.36ZM808.84 618.36C806.733 618.36 805.066 617.6 803.84 616.08C802.64 614.56 802.04 612.44 802.04 609.72C802.04 607.027 802.64 604.92 803.84 603.4C805.066 601.88 806.733 601.12 808.84 601.12C810.973 601.12 812.64 601.88 813.84 603.4C815.04 604.92 815.64 607.027 815.64 609.72C815.64 612.44 815.04 614.56 813.84 616.08C812.64 617.6 810.973 618.36 808.84 618.36ZM808.84 616C810.093 616 811.066 615.48 811.76 614.44C812.48 613.373 812.84 611.8 812.84 609.72C812.84 607.64 812.48 606.08 811.76 605.04C811.066 604 810.093 603.48 808.84 603.48C807.613 603.48 806.64 604 805.92 605.04C805.226 606.08 804.88 607.64 804.88 609.72C804.88 611.827 805.226 613.4 805.92 614.44C806.64 615.48 807.613 616 808.84 616ZM839.621 618.36C837.674 618.36 835.994 617.947 834.581 617.12C833.167 616.267 832.074 615.08 831.301 613.56C830.554 612.013 830.181 610.213 830.181 608.16C830.181 605.067 831.021 602.64 832.701 600.88C834.381 599.093 836.687 598.2 839.621 598.2C840.821 598.2 842.007 598.413 843.181 598.84C844.354 599.267 845.327 599.867 846.101 600.64L844.981 603C844.207 602.253 843.354 601.707 842.421 601.36C841.514 601.013 840.647 600.84 839.821 600.84C837.794 600.84 836.234 601.48 835.141 602.76C834.047 604.013 833.501 605.827 833.501 608.2C833.501 610.52 834.047 612.36 835.141 613.72C836.234 615.053 837.794 615.72 839.821 615.72C840.647 615.72 841.514 615.547 842.421 615.2C843.354 614.853 844.207 614.293 844.981 613.52L846.101 615.88C845.327 616.653 844.341 617.267 843.141 617.72C841.967 618.147 840.794 618.36 839.621 618.36ZM850.247 618V598.56H853.487V606.68H857.127L863.487 598.56H867.047L860.287 607.32C860.98 607.587 861.607 608.027 862.167 608.64C862.727 609.253 863.354 610.133 864.047 611.28L868.047 618H864.567L861.047 612.12C860.38 610.973 859.74 610.213 859.127 609.84C858.514 609.467 857.647 609.28 856.527 609.28H853.487V618H850.247ZM871.342 625.2V598.56H874.502V602.04C875.088 600.84 875.955 599.907 877.102 599.24C878.275 598.547 879.635 598.2 881.182 598.2C882.915 598.2 884.422 598.613 885.702 599.44C887.008 600.24 888.008 601.4 888.702 602.92C889.422 604.413 889.782 606.2 889.782 608.28C889.782 610.333 889.422 612.12 888.702 613.64C888.008 615.133 887.008 616.293 885.702 617.12C884.422 617.947 882.915 618.36 881.182 618.36C879.688 618.36 878.355 618.027 877.182 617.36C876.008 616.693 875.142 615.773 874.582 614.6V625.2H871.342ZM880.502 615.76C882.315 615.76 883.768 615.12 884.862 613.84C885.955 612.533 886.502 610.68 886.502 608.28C886.502 605.853 885.955 604 884.862 602.72C883.768 601.44 882.315 600.8 880.502 600.8C878.688 600.8 877.235 601.44 876.142 602.72C875.048 604 874.502 605.853 874.502 608.28C874.502 610.68 875.048 612.533 876.142 613.84C877.235 615.12 878.688 615.76 880.502 615.76ZM897.058 625.2L900.378 617.68L892.178 598.56H895.698L902.138 614.32L908.618 598.56H912.018L900.458 625.2H897.058ZM915.755 618V598.56H929.395V601.16H918.995V618H915.755ZM931.276 618.44L930.076 615.88C931.276 615.373 932.223 614.667 932.916 613.76C933.61 612.827 934.09 611.547 934.356 609.92C934.65 608.293 934.796 606.16 934.796 603.52V598.56H948.916V618H945.676V601.16H937.836V603.64C937.836 606.68 937.61 609.187 937.156 611.16C936.73 613.133 936.036 614.693 935.076 615.84C934.116 616.987 932.85 617.853 931.276 618.44ZM964.125 618.36C961.058 618.36 958.632 617.467 956.845 615.68C955.058 613.867 954.165 611.413 954.165 608.32C954.165 606.32 954.565 604.56 955.365 603.04C956.165 601.493 957.258 600.307 958.645 599.48C960.058 598.627 961.685 598.2 963.525 598.2C966.165 598.2 968.232 599.053 969.725 600.76C971.218 602.44 971.965 604.76 971.965 607.72V608.96H957.325C957.432 611.173 958.072 612.867 959.245 614.04C960.418 615.187 962.045 615.76 964.125 615.76C965.298 615.76 966.418 615.587 967.485 615.24C968.552 614.867 969.565 614.267 970.525 613.44L971.645 615.72C970.765 616.547 969.645 617.2 968.285 617.68C966.925 618.133 965.538 618.36 964.125 618.36ZM963.605 600.6C961.765 600.6 960.312 601.173 959.245 602.32C958.178 603.467 957.552 604.973 957.365 606.84H969.165C969.085 604.867 968.565 603.333 967.605 602.24C966.672 601.147 965.338 600.6 963.605 600.6ZM977.005 618V598.56H980.245V606.64H990.845V598.56H994.085V618H990.845V609.28H980.245V618H977.005ZM1000.48 618V598.56H1003.44V613.6L1014.68 598.56H1017.44V618H1014.48V602.96L1003.24 618H1000.48ZM1022.24 618L1025.24 612.8C1026.04 611.387 1027.07 610.467 1028.32 610.04C1026.67 609.8 1025.39 609.2 1024.48 608.24C1023.57 607.253 1023.12 605.973 1023.12 604.4C1023.12 602.613 1023.71 601.2 1024.88 600.16C1026.08 599.093 1027.87 598.56 1030.24 598.56H1039V618H1035.92V610.6H1033.08C1032.01 610.6 1031.11 610.867 1030.36 611.4C1029.64 611.933 1029.05 612.587 1028.6 613.36L1025.96 618H1022.24ZM1030.84 608.24H1035.92V600.84H1030.84C1029.27 600.84 1028.11 601.173 1027.36 601.84C1026.61 602.48 1026.24 603.373 1026.24 604.52C1026.24 605.693 1026.61 606.613 1027.36 607.28C1028.11 607.92 1029.27 608.24 1030.84 608.24ZM1045.4 618V598.56H1048.08L1055.4 611.56L1062.72 598.56H1065.36V618H1062.48V603.84L1056.2 614.88H1054.56L1048.28 603.84V618H1045.4ZM1071.77 618V598.56H1074.73V613.6L1085.97 598.56H1088.73V618H1085.77V602.96L1074.53 618H1071.77ZM1103.28 623.2V615.4H1105.32C1106.26 614.04 1106.92 612.48 1107.32 610.72C1107.72 608.933 1107.92 606.787 1107.92 604.28V598.56H1121.68V615.4H1124.76V623.2H1121.96V618H1106.04V623.2H1103.28ZM1108.44 615.4H1118.6V601.12H1110.8V604.84C1110.8 606.84 1110.6 608.773 1110.2 610.64C1109.8 612.507 1109.22 614.093 1108.44 615.4ZM1128 618.44L1126.8 615.88C1128 615.373 1128.94 614.667 1129.64 613.76C1130.33 612.827 1130.81 611.547 1131.08 609.92C1131.37 608.293 1131.52 606.16 1131.52 603.52V598.56H1145.64V618H1142.4V601.16H1134.56V603.64C1134.56 606.68 1134.33 609.187 1133.88 611.16C1133.45 613.133 1132.76 614.693 1131.8 615.84C1130.84 616.987 1129.57 617.853 1128 618.44ZM1150.44 618L1153.44 612.8C1154.24 611.387 1155.27 610.467 1156.52 610.04C1154.87 609.8 1153.59 609.2 1152.68 608.24C1151.78 607.253 1151.32 605.973 1151.32 604.4C1151.32 602.613 1151.91 601.2 1153.08 600.16C1154.28 599.093 1156.07 598.56 1158.44 598.56H1167.2V618H1164.12V610.6H1161.28C1160.22 610.6 1159.31 610.867 1158.56 611.4C1157.84 611.933 1157.26 612.587 1156.8 613.36L1154.16 618H1150.44ZM1159.04 608.24H1164.12V600.84H1159.04C1157.47 600.84 1156.31 601.173 1155.56 601.84C1154.82 602.48 1154.44 603.373 1154.44 604.52C1154.44 605.693 1154.82 606.613 1155.56 607.28C1156.31 607.92 1157.47 608.24 1159.04 608.24ZM1192.16 618.36C1190.21 618.36 1188.53 617.947 1187.12 617.12C1185.71 616.267 1184.61 615.08 1183.84 613.56C1183.09 612.013 1182.72 610.213 1182.72 608.16C1182.72 605.067 1183.56 602.64 1185.24 600.88C1186.92 599.093 1189.23 598.2 1192.16 598.2C1193.36 598.2 1194.55 598.413 1195.72 598.84C1196.89 599.267 1197.87 599.867 1198.64 600.64L1197.52 603C1196.75 602.253 1195.89 601.707 1194.96 601.36C1194.05 601.013 1193.19 600.84 1192.36 600.84C1190.33 600.84 1188.77 601.48 1187.68 602.76C1186.59 604.013 1186.04 605.827 1186.04 608.2C1186.04 610.52 1186.59 612.36 1187.68 613.72C1188.77 615.053 1190.33 615.72 1192.36 615.72C1193.19 615.72 1194.05 615.547 1194.96 615.2C1195.89 614.853 1196.75 614.293 1197.52 613.52L1198.64 615.88C1197.87 616.653 1196.88 617.267 1195.68 617.72C1194.51 618.147 1193.33 618.36 1192.16 618.36ZM1210.91 618.36C1209.01 618.36 1207.37 617.947 1205.99 617.12C1204.6 616.293 1203.52 615.133 1202.75 613.64C1202 612.12 1201.63 610.333 1201.63 608.28C1201.63 606.227 1202 604.453 1202.75 602.96C1203.52 601.44 1204.6 600.267 1205.99 599.44C1207.37 598.613 1209.01 598.2 1210.91 598.2C1212.77 598.2 1214.4 598.613 1215.79 599.44C1217.2 600.267 1218.28 601.44 1219.03 602.96C1219.8 604.453 1220.19 606.227 1220.19 608.28C1220.19 610.333 1219.8 612.12 1219.03 613.64C1218.28 615.133 1217.2 616.293 1215.79 617.12C1214.4 617.947 1212.77 618.36 1210.91 618.36ZM1210.91 615.76C1212.72 615.76 1214.17 615.12 1215.27 613.84C1216.36 612.533 1216.91 610.68 1216.91 608.28C1216.91 605.853 1216.36 604 1215.27 602.72C1214.17 601.44 1212.72 600.8 1210.91 600.8C1209.07 600.8 1207.6 601.44 1206.51 602.72C1205.44 604 1204.91 605.853 1204.91 608.28C1204.91 610.68 1205.44 612.533 1206.51 613.84C1207.6 615.12 1209.07 615.76 1210.91 615.76ZM1231.88 618.36C1230.2 618.36 1228.62 618.147 1227.12 617.72C1225.66 617.267 1224.47 616.64 1223.56 615.84L1224.6 613.56C1225.54 614.307 1226.63 614.88 1227.88 615.28C1229.14 615.653 1230.44 615.84 1231.8 615.84C1233.72 615.84 1235.1 615.56 1235.92 615C1236.78 614.44 1237.2 613.613 1237.2 612.52C1237.2 610.413 1235.86 609.36 1233.16 609.36H1228.56V606.92H1232.76C1233.91 606.92 1234.82 606.653 1235.48 606.12C1236.18 605.587 1236.52 604.84 1236.52 603.88C1236.52 602.92 1236.15 602.16 1235.4 601.6C1234.66 601.013 1233.46 600.72 1231.8 600.72C1229.22 600.72 1226.92 601.427 1224.92 602.84L1223.88 600.56C1226.07 598.987 1228.84 598.2 1232.2 598.2C1234.68 598.2 1236.54 598.68 1237.76 599.64C1238.99 600.6 1239.6 601.947 1239.6 603.68C1239.6 604.667 1239.31 605.547 1238.72 606.32C1238.16 607.067 1237.39 607.613 1236.4 607.96C1237.6 608.253 1238.55 608.813 1239.24 609.64C1239.94 610.44 1240.28 611.44 1240.28 612.64C1240.28 614.373 1239.58 615.76 1238.16 616.8C1236.75 617.84 1234.66 618.36 1231.88 618.36ZM1243.6 623.2V615.4H1245.64C1246.57 614.04 1247.24 612.48 1247.64 610.72C1248.04 608.933 1248.24 606.787 1248.24 604.28V598.56H1262V615.4H1265.08V623.2H1262.28V618H1246.36V623.2H1243.6ZM1248.76 615.4H1258.92V601.12H1251.12V604.84C1251.12 606.84 1250.92 608.773 1250.52 610.64C1250.12 612.507 1249.53 614.093 1248.76 615.4ZM1275.55 618.36C1274.21 618.36 1273.01 618.107 1271.95 617.6C1270.91 617.067 1270.08 616.347 1269.47 615.44C1268.85 614.533 1268.55 613.52 1268.55 612.4C1268.55 610.987 1268.91 609.867 1269.63 609.04C1270.37 608.213 1271.59 607.627 1273.27 607.28C1274.97 606.907 1277.29 606.72 1280.23 606.72H1281.51V605.48C1281.51 603.827 1281.16 602.64 1280.47 601.92C1279.8 601.173 1278.72 600.8 1277.23 600.8C1276.05 600.8 1274.92 600.973 1273.83 601.32C1272.73 601.64 1271.61 602.173 1270.47 602.92L1269.35 600.56C1270.36 599.84 1271.59 599.267 1273.03 598.84C1274.49 598.413 1275.89 598.2 1277.23 598.2C1279.73 598.2 1281.59 598.813 1282.79 600.04C1284.01 601.267 1284.63 603.173 1284.63 605.76V618H1281.59V614.64C1281.08 615.787 1280.29 616.693 1279.23 617.36C1278.19 618.027 1276.96 618.36 1275.55 618.36ZM1276.07 615.92C1277.67 615.92 1278.97 615.373 1279.99 614.28C1281 613.16 1281.51 611.747 1281.51 610.04V608.84H1280.27C1278.11 608.84 1276.4 608.947 1275.15 609.16C1273.92 609.347 1273.05 609.693 1272.55 610.2C1272.07 610.68 1271.83 611.347 1271.83 612.2C1271.83 613.293 1272.2 614.187 1272.95 614.88C1273.72 615.573 1274.76 615.92 1276.07 615.92ZM1290.95 618V598.56H1294.19V606.64H1304.79V598.56H1308.03V618H1304.79V609.28H1294.19V618H1290.95ZM1314.43 618V598.56H1317.39V613.6L1328.63 598.56H1331.39V618H1328.43V602.96L1317.19 618H1314.43ZM1336.19 618L1339.19 612.8C1339.99 611.387 1341.01 610.467 1342.27 610.04C1340.61 609.8 1339.33 609.2 1338.43 608.24C1337.52 607.253 1337.07 605.973 1337.07 604.4C1337.07 602.613 1337.65 601.2 1338.83 600.16C1340.03 599.093 1341.81 598.56 1344.19 598.56H1352.95V618H1349.87V610.6H1347.03C1345.96 610.6 1345.05 610.867 1344.31 611.4C1343.59 611.933 1343 612.587 1342.55 613.36L1339.91 618H1336.19ZM1344.79 608.24H1349.87V600.84H1344.79C1343.21 600.84 1342.05 601.173 1341.31 601.84C1340.56 602.48 1340.19 603.373 1340.19 604.52C1340.19 605.693 1340.56 606.613 1341.31 607.28C1342.05 607.92 1343.21 608.24 1344.79 608.24ZM1376.06 618.36C1374.38 618.36 1372.8 618.147 1371.3 617.72C1369.84 617.267 1368.65 616.64 1367.74 615.84L1368.78 613.56C1369.72 614.307 1370.81 614.88 1372.06 615.28C1373.32 615.653 1374.62 615.84 1375.98 615.84C1377.9 615.84 1379.28 615.56 1380.1 615C1380.96 614.44 1381.38 613.613 1381.38 612.52C1381.38 610.413 1380.04 609.36 1377.34 609.36H1372.74V606.92H1376.94C1378.09 606.92 1379 606.653 1379.66 606.12C1380.36 605.587 1380.7 604.84 1380.7 603.88C1380.7 602.92 1380.33 602.16 1379.58 601.6C1378.84 601.013 1377.64 600.72 1375.98 600.72C1373.4 600.72 1371.1 601.427 1369.1 602.84L1368.06 600.56C1370.25 598.987 1373.02 598.2 1376.38 598.2C1378.86 598.2 1380.72 598.68 1381.94 599.64C1383.17 600.6 1383.78 601.947 1383.78 603.68C1383.78 604.667 1383.49 605.547 1382.9 606.32C1382.34 607.067 1381.57 607.613 1380.58 607.96C1381.78 608.253 1382.73 608.813 1383.42 609.64C1384.12 610.44 1384.46 611.44 1384.46 612.64C1384.46 614.373 1383.76 615.76 1382.34 616.8C1380.93 617.84 1378.84 618.36 1376.06 618.36ZM1395.66 618.36C1394.33 618.36 1393.13 618.107 1392.06 617.6C1391.02 617.067 1390.2 616.347 1389.58 615.44C1388.97 614.533 1388.66 613.52 1388.66 612.4C1388.66 610.987 1389.02 609.867 1389.74 609.04C1390.49 608.213 1391.7 607.627 1393.38 607.28C1395.09 606.907 1397.41 606.72 1400.34 606.72H1401.62V605.48C1401.62 603.827 1401.28 602.64 1400.58 601.92C1399.92 601.173 1398.84 600.8 1397.34 600.8C1396.17 600.8 1395.04 600.973 1393.94 601.32C1392.85 601.64 1391.73 602.173 1390.58 602.92L1389.46 600.56C1390.48 599.84 1391.7 599.267 1393.14 598.84C1394.61 598.413 1396.01 598.2 1397.34 598.2C1399.85 598.2 1401.7 598.813 1402.9 600.04C1404.13 601.267 1404.74 603.173 1404.74 605.76V618H1401.7V614.64C1401.2 615.787 1400.41 616.693 1399.34 617.36C1398.3 618.027 1397.08 618.36 1395.66 618.36ZM1396.18 615.92C1397.78 615.92 1399.09 615.373 1400.1 614.28C1401.12 613.16 1401.62 611.747 1401.62 610.04V608.84H1400.38C1398.22 608.84 1396.52 608.947 1395.26 609.16C1394.04 609.347 1393.17 609.693 1392.66 610.2C1392.18 610.68 1391.94 611.347 1391.94 612.2C1391.94 613.293 1392.32 614.187 1393.06 614.88C1393.84 615.573 1394.88 615.92 1396.18 615.92ZM1419.35 618.36C1417.4 618.36 1415.72 617.947 1414.31 617.12C1412.89 616.267 1411.8 615.08 1411.03 613.56C1410.28 612.013 1409.91 610.213 1409.91 608.16C1409.91 605.067 1410.75 602.64 1412.43 600.88C1414.11 599.093 1416.41 598.2 1419.35 598.2C1420.55 598.2 1421.73 598.413 1422.91 598.84C1424.08 599.267 1425.05 599.867 1425.83 600.64L1424.71 603C1423.93 602.253 1423.08 601.707 1422.15 601.36C1421.24 601.013 1420.37 600.84 1419.55 600.84C1417.52 600.84 1415.96 601.48 1414.87 602.76C1413.77 604.013 1413.23 605.827 1413.23 608.2C1413.23 610.52 1413.77 612.36 1414.87 613.72C1415.96 615.053 1417.52 615.72 1419.55 615.72C1420.37 615.72 1421.24 615.547 1422.15 615.2C1423.08 614.853 1423.93 614.293 1424.71 613.52L1425.83 615.88C1425.05 616.653 1424.07 617.267 1422.87 617.72C1421.69 618.147 1420.52 618.36 1419.35 618.36ZM1429.97 618V598.56H1433.21V606.64H1443.81V598.56H1447.05V618H1443.81V609.28H1433.21V618H1429.97ZM1462.25 618.36C1459.18 618.36 1456.76 617.467 1454.97 615.68C1453.18 613.867 1452.29 611.413 1452.29 608.32C1452.29 606.32 1452.69 604.56 1453.49 603.04C1454.29 601.493 1455.38 600.307 1456.77 599.48C1458.18 598.627 1459.81 598.2 1461.65 598.2C1464.29 598.2 1466.36 599.053 1467.85 600.76C1469.34 602.44 1470.09 604.76 1470.09 607.72V608.96H1455.45C1455.56 611.173 1456.2 612.867 1457.37 614.04C1458.54 615.187 1460.17 615.76 1462.25 615.76C1463.42 615.76 1464.54 615.587 1465.61 615.24C1466.68 614.867 1467.69 614.267 1468.65 613.44L1469.77 615.72C1468.89 616.547 1467.77 617.2 1466.41 617.68C1465.05 618.133 1463.66 618.36 1462.25 618.36ZM1461.73 600.6C1459.89 600.6 1458.44 601.173 1457.37 602.32C1456.3 603.467 1455.68 604.973 1455.49 606.84H1467.29C1467.21 604.867 1466.69 603.333 1465.73 602.24C1464.8 601.147 1463.46 600.6 1461.73 600.6ZM1471.97 618L1475.97 611.28C1476.66 610.107 1477.29 609.213 1477.85 608.6C1478.44 607.987 1479.09 607.547 1479.81 607.28L1472.97 598.56H1476.53L1482.93 606.68H1486.01V598.56H1489.25V606.68H1492.37L1498.73 598.56H1502.29L1495.45 607.28C1496.17 607.547 1496.81 607.987 1497.37 608.6C1497.96 609.213 1498.6 610.107 1499.29 611.28L1503.29 618H1499.81L1496.29 612.12C1495.62 610.973 1494.97 610.213 1494.33 609.84C1493.72 609.467 1492.86 609.28 1491.77 609.28H1489.25V618H1486.01V609.28H1483.49C1482.4 609.28 1481.54 609.467 1480.93 609.84C1480.32 610.213 1479.66 610.973 1478.97 612.12L1475.45 618H1471.97ZM1515.34 618.36C1512.27 618.36 1509.84 617.467 1508.06 615.68C1506.27 613.867 1505.38 611.413 1505.38 608.32C1505.38 606.32 1505.78 604.56 1506.58 603.04C1507.38 601.493 1508.47 600.307 1509.86 599.48C1511.27 598.627 1512.9 598.2 1514.74 598.2C1517.38 598.2 1519.44 599.053 1520.94 600.76C1522.43 602.44 1523.18 604.76 1523.18 607.72V608.96H1508.54C1508.64 611.173 1509.28 612.867 1510.46 614.04C1511.63 615.187 1513.26 615.76 1515.34 615.76C1516.51 615.76 1517.63 615.587 1518.7 615.24C1519.76 614.867 1520.78 614.267 1521.74 613.44L1522.86 615.72C1521.98 616.547 1520.86 617.2 1519.5 617.68C1518.14 618.133 1516.75 618.36 1515.34 618.36ZM1514.82 600.6C1512.98 600.6 1511.52 601.173 1510.46 602.32C1509.39 603.467 1508.76 604.973 1508.58 606.84H1520.38C1520.3 604.867 1519.78 603.333 1518.82 602.24C1517.88 601.147 1516.55 600.6 1514.82 600.6ZM1528.22 618V598.56H1531.46V606.64H1542.06V598.56H1545.3V618H1542.06V609.28H1531.46V618H1528.22ZM1551.69 618V598.56H1554.93V606.64H1565.53V598.56H1568.77V618H1565.53V609.28H1554.93V618H1551.69ZM1575.17 618V598.56H1578.41V605.48H1584.29C1586.77 605.48 1588.65 606.027 1589.93 607.12C1591.21 608.187 1591.85 609.707 1591.85 611.68C1591.85 613.627 1591.18 615.173 1589.85 616.32C1588.54 617.44 1586.69 618 1584.29 618H1575.17ZM1594.73 618V598.56H1597.97V618H1594.73ZM1578.41 615.68H1583.97C1585.46 615.68 1586.62 615.36 1587.45 614.72C1588.3 614.08 1588.73 613.08 1588.73 611.72C1588.73 610.387 1588.32 609.4 1587.49 608.76C1586.66 608.12 1585.49 607.8 1583.97 607.8H1578.41V615.68ZM1601.95 618L1610.03 607.96L1602.43 598.56H1606.27L1611.91 605.72L1617.59 598.56H1621.39L1613.79 607.96L1621.87 618H1618.03L1611.87 610.28L1605.79 618H1601.95ZM1636.07 618V598.56H1649.71V601.16H1639.31V618H1636.07ZM1661.57 618.36C1659.68 618.36 1658.04 617.947 1656.65 617.12C1655.26 616.293 1654.18 615.133 1653.41 613.64C1652.66 612.12 1652.29 610.333 1652.29 608.28C1652.29 606.227 1652.66 604.453 1653.41 602.96C1654.18 601.44 1655.26 600.267 1656.65 599.44C1658.04 598.613 1659.68 598.2 1661.57 598.2C1663.44 598.2 1665.06 598.613 1666.45 599.44C1667.86 600.267 1668.94 601.44 1669.69 602.96C1670.46 604.453 1670.85 606.227 1670.85 608.28C1670.85 610.333 1670.46 612.12 1669.69 613.64C1668.94 615.133 1667.86 616.293 1666.45 617.12C1665.06 617.947 1663.44 618.36 1661.57 618.36ZM1661.57 615.76C1663.38 615.76 1664.84 615.12 1665.93 613.84C1667.02 612.533 1667.57 610.68 1667.57 608.28C1667.57 605.853 1667.02 604 1665.93 602.72C1664.84 601.44 1663.38 600.8 1661.57 600.8C1659.73 600.8 1658.26 601.44 1657.17 602.72C1656.1 604 1655.57 605.853 1655.57 608.28C1655.57 610.68 1656.1 612.533 1657.17 613.84C1658.26 615.12 1659.73 615.76 1661.57 615.76ZM1676.15 625.2V598.56H1679.31V602.04C1679.89 600.84 1680.76 599.907 1681.91 599.24C1683.08 598.547 1684.44 598.2 1685.99 598.2C1687.72 598.2 1689.23 598.613 1690.51 599.44C1691.81 600.24 1692.81 601.4 1693.51 602.92C1694.23 604.413 1694.59 606.2 1694.59 608.28C1694.59 610.333 1694.23 612.12 1693.51 613.64C1692.81 615.133 1691.81 616.293 1690.51 617.12C1689.23 617.947 1687.72 618.36 1685.99 618.36C1684.49 618.36 1683.16 618.027 1681.99 617.36C1680.81 616.693 1679.95 615.773 1679.39 614.6V625.2H1676.15ZM1685.31 615.76C1687.12 615.76 1688.57 615.12 1689.67 613.84C1690.76 612.533 1691.31 610.68 1691.31 608.28C1691.31 605.853 1690.76 604 1689.67 602.72C1688.57 601.44 1687.12 600.8 1685.31 600.8C1683.49 600.8 1682.04 601.44 1680.95 602.72C1679.85 604 1679.31 605.853 1679.31 608.28C1679.31 610.68 1679.85 612.533 1680.95 613.84C1682.04 615.12 1683.49 615.76 1685.31 615.76Z" fill="#132766"/>
<path d="M614.56 2796V2767.8H617.32L628.16 2788.16L638.92 2767.8H641.68V2796H638.64V2773.96L629.24 2791.64H627.08L617.56 2774V2796H614.56ZM656.539 2796.36C654.645 2796.36 653.005 2795.95 651.619 2795.12C650.232 2794.29 649.152 2793.13 648.379 2791.64C647.632 2790.12 647.259 2788.33 647.259 2786.28C647.259 2784.23 647.632 2782.45 648.379 2780.96C649.152 2779.44 650.232 2778.27 651.619 2777.44C653.005 2776.61 654.645 2776.2 656.539 2776.2C658.405 2776.2 660.032 2776.61 661.419 2777.44C662.832 2778.27 663.912 2779.44 664.659 2780.96C665.432 2782.45 665.819 2784.23 665.819 2786.28C665.819 2788.33 665.432 2790.12 664.659 2791.64C663.912 2793.13 662.832 2794.29 661.419 2795.12C660.032 2795.95 658.405 2796.36 656.539 2796.36ZM656.539 2793.76C658.352 2793.76 659.805 2793.12 660.899 2791.84C661.992 2790.53 662.539 2788.68 662.539 2786.28C662.539 2783.85 661.992 2782 660.899 2780.72C659.805 2779.44 658.352 2778.8 656.539 2778.8C654.699 2778.8 653.232 2779.44 652.139 2780.72C651.072 2782 650.539 2783.85 650.539 2786.28C650.539 2788.68 651.072 2790.53 652.139 2791.84C653.232 2793.12 654.699 2793.76 656.539 2793.76ZM667.915 2796L671.915 2789.28C672.608 2788.11 673.235 2787.21 673.795 2786.6C674.382 2785.99 675.035 2785.55 675.755 2785.28L668.915 2776.56H672.475L678.875 2784.68H681.955V2776.56H685.195V2784.68H688.315L694.675 2776.56H698.235L691.395 2785.28C692.115 2785.55 692.755 2785.99 693.315 2786.6C693.902 2787.21 694.542 2788.11 695.235 2789.28L699.235 2796H695.755L692.235 2790.12C691.568 2788.97 690.915 2788.21 690.275 2787.84C689.662 2787.47 688.808 2787.28 687.715 2787.28H685.195V2796H681.955V2787.28H679.435C678.342 2787.28 677.488 2787.47 676.875 2787.84C676.262 2788.21 675.608 2788.97 674.915 2790.12L671.395 2796H667.915ZM702.481 2796V2776.56H705.721V2784.64H716.321V2776.56H719.561V2796H716.321V2787.28H705.721V2796H702.481ZM734.078 2796.36C732.184 2796.36 730.544 2795.95 729.158 2795.12C727.771 2794.29 726.691 2793.13 725.918 2791.64C725.171 2790.12 724.798 2788.33 724.798 2786.28C724.798 2784.23 725.171 2782.45 725.918 2780.96C726.691 2779.44 727.771 2778.27 729.158 2777.44C730.544 2776.61 732.184 2776.2 734.078 2776.2C735.944 2776.2 737.571 2776.61 738.958 2777.44C740.371 2778.27 741.451 2779.44 742.198 2780.96C742.971 2782.45 743.358 2784.23 743.358 2786.28C743.358 2788.33 742.971 2790.12 742.198 2791.64C741.451 2793.13 740.371 2794.29 738.958 2795.12C737.571 2795.95 735.944 2796.36 734.078 2796.36ZM734.078 2793.76C735.891 2793.76 737.344 2793.12 738.438 2791.84C739.531 2790.53 740.078 2788.68 740.078 2786.28C740.078 2783.85 739.531 2782 738.438 2780.72C737.344 2779.44 735.891 2778.8 734.078 2778.8C732.238 2778.8 730.771 2779.44 729.678 2780.72C728.611 2782 728.078 2783.85 728.078 2786.28C728.078 2788.68 728.611 2790.53 729.678 2791.84C730.771 2793.12 732.238 2793.76 734.078 2793.76ZM758.888 2796V2776.56H761.848V2791.6L773.088 2776.56H775.848V2796H772.888V2780.96L761.648 2796H758.888ZM790.527 2796.36C788.58 2796.36 786.9 2795.95 785.487 2795.12C784.074 2794.27 782.98 2793.08 782.207 2791.56C781.46 2790.01 781.087 2788.21 781.087 2786.16C781.087 2783.07 781.927 2780.64 783.607 2778.88C785.287 2777.09 787.594 2776.2 790.527 2776.2C791.727 2776.2 792.914 2776.41 794.087 2776.84C795.26 2777.27 796.234 2777.87 797.007 2778.64L795.887 2781C795.114 2780.25 794.26 2779.71 793.327 2779.36C792.42 2779.01 791.554 2778.84 790.727 2778.84C788.7 2778.84 787.14 2779.48 786.047 2780.76C784.954 2782.01 784.407 2783.83 784.407 2786.2C784.407 2788.52 784.954 2790.36 786.047 2791.72C787.14 2793.05 788.7 2793.72 790.727 2793.72C791.554 2793.72 792.42 2793.55 793.327 2793.2C794.26 2792.85 795.114 2792.29 795.887 2791.52L797.007 2793.88C796.234 2794.65 795.247 2795.27 794.047 2795.72C792.874 2796.15 791.7 2796.36 790.527 2796.36ZM801.153 2796V2776.56H818.113V2796H814.873V2779.16H804.393V2796H801.153ZM832.633 2796.36C830.739 2796.36 829.099 2795.95 827.713 2795.12C826.326 2794.29 825.246 2793.13 824.473 2791.64C823.726 2790.12 823.353 2788.33 823.353 2786.28C823.353 2784.23 823.726 2782.45 824.473 2780.96C825.246 2779.44 826.326 2778.27 827.713 2777.44C829.099 2776.61 830.739 2776.2 832.633 2776.2C834.499 2776.2 836.126 2776.61 837.513 2777.44C838.926 2778.27 840.006 2779.44 840.753 2780.96C841.526 2782.45 841.913 2784.23 841.913 2786.28C841.913 2788.33 841.526 2790.12 840.753 2791.64C840.006 2793.13 838.926 2794.29 837.513 2795.12C836.126 2795.95 834.499 2796.36 832.633 2796.36ZM832.633 2793.76C834.446 2793.76 835.899 2793.12 836.993 2791.84C838.086 2790.53 838.633 2788.68 838.633 2786.28C838.633 2783.85 838.086 2782 836.993 2780.72C835.899 2779.44 834.446 2778.8 832.633 2778.8C830.793 2778.8 829.326 2779.44 828.233 2780.72C827.166 2782 826.633 2783.85 826.633 2786.28C826.633 2788.68 827.166 2790.53 828.233 2791.84C829.326 2793.12 830.793 2793.76 832.633 2793.76ZM845.698 2796.44L844.498 2793.88C845.698 2793.37 846.645 2792.67 847.338 2791.76C848.031 2790.83 848.511 2789.55 848.778 2787.92C849.071 2786.29 849.218 2784.16 849.218 2781.52V2776.56H863.338V2796H860.098V2779.16H852.258V2781.64C852.258 2784.68 852.031 2787.19 851.578 2789.16C851.151 2791.13 850.458 2792.69 849.498 2793.84C848.538 2794.99 847.271 2795.85 845.698 2796.44ZM869.747 2796V2776.56H872.987V2783.48H878.867C881.347 2783.48 883.227 2784.03 884.507 2785.12C885.787 2786.19 886.427 2787.71 886.427 2789.68C886.427 2791.63 885.76 2793.17 884.427 2794.32C883.12 2795.44 881.267 2796 878.867 2796H869.747ZM872.987 2793.68H878.547C880.04 2793.68 881.2 2793.36 882.027 2792.72C882.88 2792.08 883.307 2791.08 883.307 2789.72C883.307 2788.39 882.894 2787.4 882.067 2786.76C881.24 2786.12 880.067 2785.8 878.547 2785.8H872.987V2793.68ZM898.062 2796.36C896.382 2796.36 894.795 2796.15 893.302 2795.72C891.835 2795.27 890.649 2794.64 889.742 2793.84L890.782 2791.56C891.715 2792.31 892.809 2792.88 894.062 2793.28C895.315 2793.65 896.622 2793.84 897.982 2793.84C899.902 2793.84 901.275 2793.56 902.102 2793C902.955 2792.44 903.382 2791.61 903.382 2790.52C903.382 2788.41 902.035 2787.36 899.342 2787.36H894.742V2784.92H898.942C900.089 2784.92 900.995 2784.65 901.662 2784.12C902.355 2783.59 902.702 2782.84 902.702 2781.88C902.702 2780.92 902.329 2780.16 901.582 2779.6C900.835 2779.01 899.635 2778.72 897.982 2778.72C895.395 2778.72 893.102 2779.43 891.102 2780.84L890.062 2778.56C892.249 2776.99 895.022 2776.2 898.382 2776.2C900.862 2776.2 902.715 2776.68 903.942 2777.64C905.169 2778.6 905.782 2779.95 905.782 2781.68C905.782 2782.67 905.489 2783.55 904.902 2784.32C904.342 2785.07 903.569 2785.61 902.582 2785.96C903.782 2786.25 904.729 2786.81 905.422 2787.64C906.115 2788.44 906.462 2789.44 906.462 2790.64C906.462 2792.37 905.755 2793.76 904.342 2794.8C902.929 2795.84 900.835 2796.36 898.062 2796.36ZM919.625 2796.36C917.731 2796.36 916.091 2795.95 914.705 2795.12C913.318 2794.29 912.238 2793.13 911.465 2791.64C910.718 2790.12 910.345 2788.33 910.345 2786.28C910.345 2784.23 910.718 2782.45 911.465 2780.96C912.238 2779.44 913.318 2778.27 914.705 2777.44C916.091 2776.61 917.731 2776.2 919.625 2776.2C921.491 2776.2 923.118 2776.61 924.505 2777.44C925.918 2778.27 926.998 2779.44 927.745 2780.96C928.518 2782.45 928.905 2784.23 928.905 2786.28C928.905 2788.33 928.518 2790.12 927.745 2791.64C926.998 2793.13 925.918 2794.29 924.505 2795.12C923.118 2795.95 921.491 2796.36 919.625 2796.36ZM919.625 2793.76C921.438 2793.76 922.891 2793.12 923.985 2791.84C925.078 2790.53 925.625 2788.68 925.625 2786.28C925.625 2783.85 925.078 2782 923.985 2780.72C922.891 2779.44 921.438 2778.8 919.625 2778.8C917.785 2778.8 916.318 2779.44 915.225 2780.72C914.158 2782 913.625 2783.85 913.625 2786.28C913.625 2788.68 914.158 2790.53 915.225 2791.84C916.318 2793.12 917.785 2793.76 919.625 2793.76ZM934.161 2796V2776.56H943.641C945.934 2776.56 947.628 2777 948.721 2777.88C949.814 2778.73 950.361 2780 950.361 2781.68C950.361 2782.69 950.068 2783.57 949.481 2784.32C948.921 2785.07 948.148 2785.61 947.161 2785.96C948.361 2786.25 949.294 2786.81 949.961 2787.64C950.654 2788.47 951.001 2789.47 951.001 2790.64C951.001 2792.29 950.388 2793.6 949.161 2794.56C947.934 2795.52 946.201 2796 943.961 2796H934.161ZM937.241 2785H943.481C944.708 2785 945.654 2784.73 946.321 2784.2C946.988 2783.64 947.321 2782.85 947.321 2781.84C947.321 2780.85 946.988 2780.09 946.321 2779.56C945.654 2779.03 944.708 2778.76 943.481 2778.76H937.241V2785ZM937.241 2793.8H943.841C945.174 2793.8 946.188 2793.52 946.881 2792.96C947.574 2792.4 947.921 2791.57 947.921 2790.48C947.921 2789.41 947.574 2788.6 946.881 2788.04C946.188 2787.48 945.174 2787.2 943.841 2787.2H937.241V2793.8ZM962.196 2796.36C960.863 2796.36 959.663 2796.11 958.596 2795.6C957.556 2795.07 956.729 2794.35 956.116 2793.44C955.503 2792.53 955.196 2791.52 955.196 2790.4C955.196 2788.99 955.556 2787.87 956.276 2787.04C957.023 2786.21 958.236 2785.63 959.916 2785.28C961.623 2784.91 963.943 2784.72 966.876 2784.72H968.156V2783.48C968.156 2781.83 967.809 2780.64 967.116 2779.92C966.449 2779.17 965.369 2778.8 963.876 2778.8C962.703 2778.8 961.569 2778.97 960.476 2779.32C959.383 2779.64 958.263 2780.17 957.116 2780.92L955.996 2778.56C957.009 2777.84 958.236 2777.27 959.676 2776.84C961.143 2776.41 962.543 2776.2 963.876 2776.2C966.383 2776.2 968.236 2776.81 969.436 2778.04C970.663 2779.27 971.276 2781.17 971.276 2783.76V2796H968.236V2792.64C967.729 2793.79 966.943 2794.69 965.876 2795.36C964.836 2796.03 963.609 2796.36 962.196 2796.36ZM962.716 2793.92C964.316 2793.92 965.623 2793.37 966.636 2792.28C967.649 2791.16 968.156 2789.75 968.156 2788.04V2786.84H966.916C964.756 2786.84 963.049 2786.95 961.796 2787.16C960.569 2787.35 959.703 2787.69 959.196 2788.2C958.716 2788.68 958.476 2789.35 958.476 2790.2C958.476 2791.29 958.849 2792.19 959.596 2792.88C960.369 2793.57 961.409 2793.92 962.716 2793.92ZM981.638 2796V2779.16H974.598V2776.56H991.958V2779.16H984.878V2796H981.638ZM995.372 2796V2776.56H998.612V2783.48H1004.49C1006.97 2783.48 1008.85 2784.03 1010.13 2785.12C1011.41 2786.19 1012.05 2787.71 1012.05 2789.68C1012.05 2791.63 1011.39 2793.17 1010.05 2794.32C1008.75 2795.44 1006.89 2796 1004.49 2796H995.372ZM998.612 2793.68H1004.17C1005.67 2793.68 1006.83 2793.36 1007.65 2792.72C1008.51 2792.08 1008.93 2791.08 1008.93 2789.72C1008.93 2788.39 1008.52 2787.4 1007.69 2786.76C1006.87 2786.12 1005.69 2785.8 1004.17 2785.8H998.612V2793.68ZM1027.13 2796V2776.56H1030.37V2784.64H1040.97V2776.56H1044.21V2796H1040.97V2787.28H1030.37V2796H1027.13ZM1056.77 2796.36C1055.43 2796.36 1054.23 2796.11 1053.17 2795.6C1052.13 2795.07 1051.3 2794.35 1050.69 2793.44C1050.07 2792.53 1049.77 2791.52 1049.77 2790.4C1049.77 2788.99 1050.13 2787.87 1050.85 2787.04C1051.59 2786.21 1052.81 2785.63 1054.49 2785.28C1056.19 2784.91 1058.51 2784.72 1061.45 2784.72H1062.73V2783.48C1062.73 2781.83 1062.38 2780.64 1061.69 2779.92C1061.02 2779.17 1059.94 2778.8 1058.45 2778.8C1057.27 2778.8 1056.14 2778.97 1055.05 2779.32C1053.95 2779.64 1052.83 2780.17 1051.69 2780.92L1050.57 2778.56C1051.58 2777.84 1052.81 2777.27 1054.25 2776.84C1055.71 2776.41 1057.11 2776.2 1058.45 2776.2C1060.95 2776.2 1062.81 2776.81 1064.01 2778.04C1065.23 2779.27 1065.85 2781.17 1065.85 2783.76V2796H1062.81V2792.64C1062.3 2793.79 1061.51 2794.69 1060.45 2795.36C1059.41 2796.03 1058.18 2796.36 1056.77 2796.36ZM1057.29 2793.92C1058.89 2793.92 1060.19 2793.37 1061.21 2792.28C1062.22 2791.16 1062.73 2789.75 1062.73 2788.04V2786.84H1061.49C1059.33 2786.84 1057.62 2786.95 1056.37 2787.16C1055.14 2787.35 1054.27 2787.69 1053.77 2788.2C1053.29 2788.68 1053.05 2789.35 1053.05 2790.2C1053.05 2791.29 1053.42 2792.19 1054.17 2792.88C1054.94 2793.57 1055.98 2793.92 1057.29 2793.92ZM1093.52 2803.2V2792.84C1093.04 2793.96 1092.36 2794.83 1091.48 2795.44C1090.6 2796.05 1089.55 2796.36 1088.32 2796.36C1086.91 2796.36 1085.67 2795.95 1084.6 2795.12C1083.56 2794.29 1082.75 2793.13 1082.16 2791.64C1081.58 2790.12 1081.28 2788.33 1081.28 2786.28C1081.28 2783.19 1081.92 2780.73 1083.2 2778.92C1084.48 2777.11 1086.19 2776.2 1088.32 2776.2C1089.55 2776.2 1090.6 2776.51 1091.48 2777.12C1092.36 2777.73 1093.04 2778.6 1093.52 2779.72V2767.8H1096.76V2779.68C1097.24 2778.56 1097.92 2777.71 1098.8 2777.12C1099.68 2776.51 1100.74 2776.2 1101.96 2776.2C1104.07 2776.2 1105.76 2777.11 1107.04 2778.92C1108.35 2780.73 1109 2783.19 1109 2786.28C1109 2789.35 1108.36 2791.8 1107.08 2793.64C1105.8 2795.45 1104.1 2796.36 1101.96 2796.36C1100.74 2796.36 1099.68 2796.05 1098.8 2795.44C1097.92 2794.83 1097.24 2793.97 1096.76 2792.88V2803.2H1093.52ZM1089.04 2793.8C1090.46 2793.8 1091.56 2793.16 1092.36 2791.88C1093.16 2790.6 1093.56 2788.73 1093.56 2786.28C1093.56 2783.83 1093.15 2781.96 1092.32 2780.68C1091.52 2779.4 1090.43 2778.76 1089.04 2778.76C1087.66 2778.76 1086.55 2779.4 1085.72 2780.68C1084.92 2781.96 1084.52 2783.83 1084.52 2786.28C1084.52 2788.73 1084.92 2790.6 1085.72 2791.88C1086.55 2793.16 1087.66 2793.8 1089.04 2793.8ZM1101.2 2793.8C1102.59 2793.8 1103.7 2793.16 1104.52 2791.88C1105.35 2790.6 1105.76 2788.73 1105.76 2786.28C1105.76 2783.83 1105.35 2781.96 1104.52 2780.68C1103.7 2779.4 1102.59 2778.76 1101.2 2778.76C1099.82 2778.76 1098.72 2779.4 1097.92 2780.68C1097.12 2781.96 1096.72 2783.83 1096.72 2786.28C1096.72 2788.73 1097.11 2790.6 1097.88 2791.88C1098.68 2793.16 1099.79 2793.8 1101.2 2793.8ZM1122.36 2796.36C1120.47 2796.36 1118.83 2795.95 1117.44 2795.12C1116.05 2794.29 1114.97 2793.13 1114.2 2791.64C1113.45 2790.12 1113.08 2788.33 1113.08 2786.28C1113.08 2784.23 1113.45 2782.45 1114.2 2780.96C1114.97 2779.44 1116.05 2778.27 1117.44 2777.44C1118.83 2776.61 1120.47 2776.2 1122.36 2776.2C1124.23 2776.2 1125.85 2776.61 1127.24 2777.44C1128.65 2778.27 1129.73 2779.44 1130.48 2780.96C1131.25 2782.45 1131.64 2784.23 1131.64 2786.28C1131.64 2788.33 1131.25 2790.12 1130.48 2791.64C1129.73 2793.13 1128.65 2794.29 1127.24 2795.12C1125.85 2795.95 1124.23 2796.36 1122.36 2796.36ZM1122.36 2793.76C1124.17 2793.76 1125.63 2793.12 1126.72 2791.84C1127.81 2790.53 1128.36 2788.68 1128.36 2786.28C1128.36 2783.85 1127.81 2782 1126.72 2780.72C1125.63 2779.44 1124.17 2778.8 1122.36 2778.8C1120.52 2778.8 1119.05 2779.44 1117.96 2780.72C1116.89 2782 1116.36 2783.85 1116.36 2786.28C1116.36 2788.68 1116.89 2790.53 1117.96 2791.84C1119.05 2793.12 1120.52 2793.76 1122.36 2793.76ZM1136.9 2796V2776.56H1140.14V2784.64H1150.74V2776.56H1153.98V2796H1150.74V2787.28H1140.14V2796H1136.9ZM1169.17 2796.36C1166.11 2796.36 1163.68 2795.47 1161.89 2793.68C1160.11 2791.87 1159.21 2789.41 1159.21 2786.32C1159.21 2784.32 1159.61 2782.56 1160.41 2781.04C1161.21 2779.49 1162.31 2778.31 1163.69 2777.48C1165.11 2776.63 1166.73 2776.2 1168.57 2776.2C1171.21 2776.2 1173.28 2777.05 1174.77 2778.76C1176.27 2780.44 1177.01 2782.76 1177.01 2785.72V2786.96H1162.37C1162.48 2789.17 1163.12 2790.87 1164.29 2792.04C1165.47 2793.19 1167.09 2793.76 1169.17 2793.76C1170.35 2793.76 1171.47 2793.59 1172.53 2793.24C1173.6 2792.87 1174.61 2792.27 1175.57 2791.44L1176.69 2793.72C1175.81 2794.55 1174.69 2795.2 1173.33 2795.68C1171.97 2796.13 1170.59 2796.36 1169.17 2796.36ZM1168.65 2778.6C1166.81 2778.6 1165.36 2779.17 1164.29 2780.32C1163.23 2781.47 1162.6 2782.97 1162.41 2784.84H1174.21C1174.13 2782.87 1173.61 2781.33 1172.65 2780.24C1171.72 2779.15 1170.39 2778.6 1168.65 2778.6ZM1183.05 2800.56L1181.53 2799.4C1182.12 2798.79 1182.53 2798.2 1182.77 2797.64C1183.04 2797.11 1183.21 2796.56 1183.29 2796H1181.37V2791.92H1185.45V2794.8C1185.45 2795.89 1185.28 2796.91 1184.93 2797.84C1184.58 2798.77 1183.96 2799.68 1183.05 2800.56ZM1201.43 2796V2776.56H1204.67V2784.64H1215.27V2776.56H1218.51V2796H1215.27V2787.28H1204.67V2796H1201.43ZM1233.02 2796.36C1231.13 2796.36 1229.49 2795.95 1228.1 2795.12C1226.72 2794.29 1225.64 2793.13 1224.86 2791.64C1224.12 2790.12 1223.74 2788.33 1223.74 2786.28C1223.74 2784.23 1224.12 2782.45 1224.86 2780.96C1225.64 2779.44 1226.72 2778.27 1228.1 2777.44C1229.49 2776.61 1231.13 2776.2 1233.02 2776.2C1234.89 2776.2 1236.52 2776.61 1237.9 2777.44C1239.32 2778.27 1240.4 2779.44 1241.14 2780.96C1241.92 2782.45 1242.3 2784.23 1242.3 2786.28C1242.3 2788.33 1241.92 2790.12 1241.14 2791.64C1240.4 2793.13 1239.32 2794.29 1237.9 2795.12C1236.52 2795.95 1234.89 2796.36 1233.02 2796.36ZM1233.02 2793.76C1234.84 2793.76 1236.29 2793.12 1237.38 2791.84C1238.48 2790.53 1239.02 2788.68 1239.02 2786.28C1239.02 2783.85 1238.48 2782 1237.38 2780.72C1236.29 2779.44 1234.84 2778.8 1233.02 2778.8C1231.18 2778.8 1229.72 2779.44 1228.62 2780.72C1227.56 2782 1227.02 2783.85 1227.02 2786.28C1227.02 2788.68 1227.56 2790.53 1228.62 2791.84C1229.72 2793.12 1231.18 2793.76 1233.02 2793.76ZM1262.67 2796.36C1261.34 2796.36 1260.01 2796.13 1258.67 2795.68C1257.34 2795.23 1256.33 2794.61 1255.63 2793.84L1256.75 2791.6C1257.53 2792.35 1258.43 2792.91 1259.47 2793.28C1260.51 2793.65 1261.53 2793.84 1262.51 2793.84C1264.46 2793.84 1265.99 2793.28 1267.11 2792.16C1268.23 2791.01 1268.89 2789.4 1269.07 2787.32H1259.23V2784.88H1269.07C1268.89 2783.15 1268.27 2781.68 1267.23 2780.48C1266.19 2779.28 1264.62 2778.68 1262.51 2778.68C1261.53 2778.68 1260.51 2778.87 1259.47 2779.24C1258.43 2779.61 1257.53 2780.19 1256.75 2780.96L1255.63 2778.68C1256.43 2777.91 1257.49 2777.31 1258.79 2776.88C1260.1 2776.43 1261.41 2776.2 1262.71 2776.2C1265.65 2776.2 1267.95 2777.09 1269.63 2778.88C1271.34 2780.64 1272.19 2783.07 1272.19 2786.16C1272.19 2788.21 1271.81 2790.01 1271.03 2791.56C1270.29 2793.08 1269.19 2794.27 1267.75 2795.12C1266.34 2795.95 1264.65 2796.36 1262.67 2796.36ZM1281.48 2796V2779.16H1274.44V2776.56H1291.8V2779.16H1284.72V2796H1281.48ZM1303.26 2796.36C1301.36 2796.36 1299.72 2795.95 1298.34 2795.12C1296.95 2794.29 1295.87 2793.13 1295.1 2791.64C1294.35 2790.12 1293.98 2788.33 1293.98 2786.28C1293.98 2784.23 1294.35 2782.45 1295.1 2780.96C1295.87 2779.44 1296.95 2778.27 1298.34 2777.44C1299.72 2776.61 1301.36 2776.2 1303.26 2776.2C1305.12 2776.2 1306.75 2776.61 1308.14 2777.44C1309.55 2778.27 1310.63 2779.44 1311.38 2780.96C1312.15 2782.45 1312.54 2784.23 1312.54 2786.28C1312.54 2788.33 1312.15 2790.12 1311.38 2791.64C1310.63 2793.13 1309.55 2794.29 1308.14 2795.12C1306.75 2795.95 1305.12 2796.36 1303.26 2796.36ZM1303.26 2793.76C1305.07 2793.76 1306.52 2793.12 1307.62 2791.84C1308.71 2790.53 1309.26 2788.68 1309.26 2786.28C1309.26 2783.85 1308.71 2782 1307.62 2780.72C1306.52 2779.44 1305.07 2778.8 1303.26 2778.8C1301.42 2778.8 1299.95 2779.44 1298.86 2780.72C1297.79 2782 1297.26 2783.85 1297.26 2786.28C1297.26 2788.68 1297.79 2790.53 1298.86 2791.84C1299.95 2793.12 1301.42 2793.76 1303.26 2793.76ZM1328.07 2796V2776.56H1331.31V2784.64H1341.91V2776.56H1345.15V2796H1341.91V2787.28H1331.31V2796H1328.07ZM1360.34 2796.36C1357.28 2796.36 1354.85 2795.47 1353.06 2793.68C1351.28 2791.87 1350.38 2789.41 1350.38 2786.32C1350.38 2784.32 1350.78 2782.56 1351.58 2781.04C1352.38 2779.49 1353.48 2778.31 1354.86 2777.48C1356.28 2776.63 1357.9 2776.2 1359.74 2776.2C1362.38 2776.2 1364.45 2777.05 1365.94 2778.76C1367.44 2780.44 1368.18 2782.76 1368.18 2785.72V2786.96H1353.54C1353.65 2789.17 1354.29 2790.87 1355.46 2792.04C1356.64 2793.19 1358.26 2793.76 1360.34 2793.76C1361.52 2793.76 1362.64 2793.59 1363.7 2793.24C1364.77 2792.87 1365.78 2792.27 1366.74 2791.44L1367.86 2793.72C1366.98 2794.55 1365.86 2795.2 1364.5 2795.68C1363.14 2796.13 1361.76 2796.36 1360.34 2796.36ZM1359.82 2778.6C1357.98 2778.6 1356.53 2779.17 1355.46 2780.32C1354.4 2781.47 1353.77 2782.97 1353.58 2784.84H1365.38C1365.3 2782.87 1364.78 2781.33 1363.82 2780.24C1362.89 2779.15 1361.56 2778.6 1359.82 2778.6ZM1387.54 2796V2779.16H1380.5V2776.56H1397.86V2779.16H1390.78V2796H1387.54ZM1409.31 2796.36C1407.42 2796.36 1405.78 2795.95 1404.39 2795.12C1403.01 2794.29 1401.93 2793.13 1401.15 2791.64C1400.41 2790.12 1400.03 2788.33 1400.03 2786.28C1400.03 2784.23 1400.41 2782.45 1401.15 2780.96C1401.93 2779.44 1403.01 2778.27 1404.39 2777.44C1405.78 2776.61 1407.42 2776.2 1409.31 2776.2C1411.18 2776.2 1412.81 2776.61 1414.19 2777.44C1415.61 2778.27 1416.69 2779.44 1417.43 2780.96C1418.21 2782.45 1418.59 2784.23 1418.59 2786.28C1418.59 2788.33 1418.21 2790.12 1417.43 2791.64C1416.69 2793.13 1415.61 2794.29 1414.19 2795.12C1412.81 2795.95 1411.18 2796.36 1409.31 2796.36ZM1409.31 2793.76C1411.13 2793.76 1412.58 2793.12 1413.67 2791.84C1414.77 2790.53 1415.31 2788.68 1415.31 2786.28C1415.31 2783.85 1414.77 2782 1413.67 2780.72C1412.58 2779.44 1411.13 2778.8 1409.31 2778.8C1407.47 2778.8 1406.01 2779.44 1404.91 2780.72C1403.85 2782 1403.31 2783.85 1403.31 2786.28C1403.31 2788.68 1403.85 2790.53 1404.91 2791.84C1406.01 2793.12 1407.47 2793.76 1409.31 2793.76ZM1436.33 2796V2788.12C1434.84 2789.03 1433.12 2789.48 1431.17 2789.48C1428.4 2789.48 1426.34 2788.83 1425.01 2787.52C1423.68 2786.19 1423.01 2784.17 1423.01 2781.48V2776.56H1426.25V2781.24C1426.25 2783.16 1426.66 2784.56 1427.49 2785.44C1428.34 2786.32 1429.7 2786.76 1431.57 2786.76C1432.53 2786.76 1433.37 2786.65 1434.09 2786.44C1434.84 2786.23 1435.57 2785.88 1436.29 2785.4V2776.56H1439.53V2796H1436.33ZM1445.92 2796V2776.56H1449.16V2784.64H1459.76V2776.56H1463V2796H1459.76V2787.28H1449.16V2796H1445.92ZM1477.52 2796.36C1475.62 2796.36 1473.98 2795.95 1472.6 2795.12C1471.21 2794.29 1470.13 2793.13 1469.36 2791.64C1468.61 2790.12 1468.24 2788.33 1468.24 2786.28C1468.24 2784.23 1468.61 2782.45 1469.36 2780.96C1470.13 2779.44 1471.21 2778.27 1472.6 2777.44C1473.98 2776.61 1475.62 2776.2 1477.52 2776.2C1479.38 2776.2 1481.01 2776.61 1482.4 2777.44C1483.81 2778.27 1484.89 2779.44 1485.64 2780.96C1486.41 2782.45 1486.8 2784.23 1486.8 2786.28C1486.8 2788.33 1486.41 2790.12 1485.64 2791.64C1484.89 2793.13 1483.81 2794.29 1482.4 2795.12C1481.01 2795.95 1479.38 2796.36 1477.52 2796.36ZM1477.52 2793.76C1479.33 2793.76 1480.78 2793.12 1481.88 2791.84C1482.97 2790.53 1483.52 2788.68 1483.52 2786.28C1483.52 2783.85 1482.97 2782 1481.88 2780.72C1480.78 2779.44 1479.33 2778.8 1477.52 2778.8C1475.68 2778.8 1474.21 2779.44 1473.12 2780.72C1472.05 2782 1471.52 2783.85 1471.52 2786.28C1471.52 2788.68 1472.05 2790.53 1473.12 2791.84C1474.21 2793.12 1475.68 2793.76 1477.52 2793.76Z" fill="#132766"/>
</g>
<defs>
<clipPath id="clip0_1314_338">
<rect width="2100" height="2970" fill="white"/>
</clipPath>
</defs>
</svg>
