<svg width="2100" height="2970" viewBox="0 0 2100 2970" fill="none" xmlns="http://www.w3.org/2000/svg">
<g clip-path="url(#clip0_1314_338)">
<rect width="2100" height="2970" fill="white"/>
<path d="M1237.39 873.979C1292.42 835.548 1365.58 835.548 1420.61 873.979L1810.98 1146.61L2190.9 1433.63C2244.45 1474.09 2267.06 1543.67 2247.52 1607.88L2108.87 2063.39L1953.29 2513.41C1931.36 2576.85 1872.17 2619.85 1805.06 2621.1L1329 2630L852.935 2621.1C785.827 2619.85 726.636 2576.85 704.706 2513.41L549.134 2063.39L410.482 1607.88C390.937 1543.67 413.546 1474.09 467.1 1433.63L847.016 1146.61L1237.39 873.979Z" fill="#F5FCFF"/>
<path d="M435.389 873.979C490.417 835.548 563.583 835.548 618.611 873.979L1347.82 1383.24L2057.49 1919.39C2111.05 1959.85 2133.66 2029.43 2114.11 2093.64L1855.11 2944.53L1564.51 3785.15C1542.58 3848.58 1483.39 3891.59 1416.28 3892.84L527 3909.46L-362.278 3892.84C-429.385 3891.59 -488.577 3848.58 -510.507 3785.15L-801.112 2944.53L-1060.11 2093.64C-1079.66 2029.43 -1057.05 1959.85 -1003.49 1919.39L-293.819 1383.24L435.389 873.979Z" fill="#EEFAFF"/>
<path d="M1457.89 1305.98C1512.92 1267.55 1586.08 1267.55 1641.11 1305.98L2407.19 1840.99L3152.75 2404.25C3206.3 2444.71 3228.91 2514.29 3209.37 2578.5L2937.27 3472.41L2631.97 4355.54C2610.04 4418.97 2550.85 4461.98 2483.74 4463.23L1549.5 4480.69L615.257 4463.23C548.149 4461.98 488.957 4418.97 467.027 4355.54L161.728 3472.41L-110.367 2578.5C-129.912 2514.29 -107.302 2444.71 -53.7481 2404.25L691.81 1840.99L1457.89 1305.98Z" fill="#E3F7FF"/>
<path d="M724.889 1478.98C779.917 1440.55 853.083 1440.55 908.111 1478.98L1674.19 2013.99L2419.75 2577.25C2473.3 2617.71 2495.91 2687.29 2476.37 2751.5L2204.27 3645.41L1898.97 4528.54C1877.04 4591.97 1817.85 4634.98 1750.74 4636.23L816.5 4653.69L-117.743 4636.23C-184.851 4634.98 -244.043 4591.97 -265.973 4528.54L-571.272 3645.41L-843.367 2751.5C-862.912 2687.29 -840.302 2617.71 -786.748 2577.25L-41.1904 2013.99L724.889 1478.98Z" fill="#DDF5FF"/>
<path d="M457.889 1911.98C512.917 1873.55 586.083 1873.55 641.111 1911.98L1407.19 2446.99L2152.75 3010.25C2206.3 3050.71 2228.91 3120.29 2209.37 3184.5L1937.27 4078.41L1631.97 4961.54C1610.04 5024.97 1550.85 5067.98 1483.74 5069.23L549.5 5086.69L-384.743 5069.23C-451.851 5067.98 -511.043 5024.97 -532.973 4961.54L-838.272 4078.41L-1110.37 3184.5C-1129.91 3120.29 -1107.3 3050.71 -1053.75 3010.25L-308.19 2446.99L457.889 1911.98Z" fill="#D3F1FF"/>
<path d="M1587.89 2308.98C1642.92 2270.55 1716.08 2270.55 1771.11 2308.98L2537.19 2843.99L3282.75 3407.25C3336.3 3447.71 3358.91 3517.29 3339.37 3581.5L3067.27 4475.41L2761.97 5358.54C2740.04 5421.97 2680.85 5464.98 2613.74 5466.23L1679.5 5483.69L745.257 5466.23C678.149 5464.98 618.957 5421.97 597.027 5358.54L291.728 4475.41L19.6332 3581.5C0.088295 3517.29 22.6975 3447.71 76.2519 3407.25L821.81 2843.99L1587.89 2308.98Z" fill="#C7EDFF"/>
</g>
<defs>
<clipPath id="clip0_1314_338">
<rect width="2100" height="2970" fill="white"/>
</clipPath>
</defs>
</svg>
