<svg width="876" height="400" viewBox="0 0 876 400" fill="none" xmlns="http://www.w3.org/2000/svg">
<path fill-rule="evenodd" clip-rule="evenodd" d="M544 2.0848e-05L524 100C507.999 100 520 100 504 100C435.525 100 389.249 137.871 342.445 193.844C281.207 267.079 337.352 199.994 278.164 270.422C210.041 351.482 143.848 400 39.9993 400C23.9993 400 15.9992 400 0 400L20 300C36 300 -0.000286102 300 39.9993 300C117.401 300 154.719 262.061 201.602 206.125C263.582 132.175 206.72 200.027 265.852 129.531C333.889 48.4186 389.059 0.000155339 504 8.5758e-06C520 -1.18539e-05 527.999 9.12059e-06 544 2.0848e-05Z" fill="#E0074C"/>
<path fill-rule="evenodd" clip-rule="evenodd" d="M876.001 2.0848e-05L856.001 100C840 100 852.001 100 836.001 100C767.526 100 721.25 137.871 674.446 193.844C613.208 267.079 669.353 199.994 610.165 270.422C542.042 351.482 475.849 400 372 400C356 400 348 400 332.001 400L352.001 300C368.001 300 332.001 300 372 300C449.402 300 486.72 262.061 533.603 206.125C595.583 132.175 538.721 200.027 597.853 129.531C665.89 48.4186 721.06 0.000155339 836.001 8.5758e-06C852.001 -1.18539e-05 860 9.12059e-06 876.001 2.0848e-05Z" fill="#043799"/>
</svg>
